<svg width="254" height="51" viewBox="0 0 254 51" fill="none" xmlns="http://www.w3.org/2000/svg">
<path fill-rule="evenodd" clip-rule="evenodd" d="M14.2137 42.885C19.4321 42.885 22.0414 41.0082 22.0414 36.6779C22.0414 32.9979 19.4321 30.9049 15.1065 30.9049H9.4072V42.885H14.2137ZM12.9776 22.8213C17.0977 22.8213 19.2261 20.3678 19.2261 17.265C19.2261 14.017 17.1666 11.4914 12.7716 11.4914H9.4072V22.8213H12.9776ZM0 3.40894H14.2139C24.0328 3.40894 28.4277 9.39875 28.4277 15.4612C28.4277 19.3579 26.5737 23.1826 23.0716 25.0594V25.2036C28.4965 26.7189 31.5178 31.3376 31.5178 36.6776C31.5178 43.8949 26.1617 50.967 15.4499 50.967H0V3.40894Z" fill="#1EC6FA"/>
<path fill-rule="evenodd" clip-rule="evenodd" d="M36.3969 50.3011H45.6667V16.1659H36.3969V50.3011ZM35.4351 5.62888C35.4351 2.52609 37.8383 0 41.066 0C44.2244 0 46.6277 2.38191 46.6277 5.62888C46.6277 8.80476 44.2244 11.4024 41.066 11.4024C37.8383 11.4024 35.4351 8.87685 35.4351 5.62888V5.62888Z" fill="#1EC6FA"/>
<path fill-rule="evenodd" clip-rule="evenodd" d="M54.5204 40.9427V23.2621H48.5463V15.6844H54.5204V7.67357L63.859 4.85913V15.6844H73.6784L71.5495 23.2621H63.859V38.4892C63.859 41.6646 64.8202 42.7469 66.9486 42.7469C68.7343 42.7469 70.5195 42.0971 71.7555 41.2311L74.4336 47.8707C72.0303 49.6028 67.7731 50.5409 64.5458 50.5409C58.3657 50.5409 54.5204 46.9325 54.5204 40.9427" fill="#1EC6FA"/>
<path fill-rule="evenodd" clip-rule="evenodd" d="M76.975 16.4156H84.8032L85.8327 20.024C88.5796 17.3538 91.1888 15.5496 94.6904 15.5496C96.2701 15.5496 98.193 16.0547 99.6346 17.1375L96.4073 25.2204C94.7597 24.1376 93.1801 23.9213 92.2877 23.9213C90.296 23.9213 88.7168 24.6427 86.2452 26.7357V50.5508H76.975V16.4156Z" fill="#1EC6FA"/>
<path fill-rule="evenodd" clip-rule="evenodd" d="M101.425 50.3011H110.696V16.1659H101.425V50.3011ZM100.464 5.62888C100.464 2.52609 102.867 0 106.094 0C109.253 0 111.656 2.38191 111.656 5.62888C111.656 8.80476 109.253 11.4024 106.094 11.4024C102.867 11.4024 100.464 8.87685 100.464 5.62888V5.62888Z" fill="#1EC6FA"/>
<path fill-rule="evenodd" clip-rule="evenodd" d="M125.321 33.4812L113.442 16.5215H123.055L130.333 26.9142L137.612 16.5215H147.225L135.209 33.4812L147.363 50.6567H137.75L130.265 39.9761L122.712 50.6567H113.099L125.321 33.4812Z" fill="#1EC6FA"/>
<path fill-rule="evenodd" clip-rule="evenodd" d="M172.846 16.9586C172.846 12.9359 169.706 11.5246 166.366 11.5246C161.89 11.5246 158.215 13.0769 154.808 14.7004L152.469 7.29061C156.278 5.45541 161.556 3.40894 167.835 3.40894C177.655 3.40894 182.399 8.63121 182.399 15.9702C182.399 28.8144 165.698 32.4132 162.891 42.223H183V50.4089H151C152.804 27.4738 172.846 26.1328 172.846 16.9586" fill="#0065A3"/>
<path fill-rule="evenodd" clip-rule="evenodd" d="M191.577 31.4942H201.118L201.161 17.6896L191.577 31.4942ZM181.328 33.0867L203.514 3.40894H210.103V31.4616H216.691V39.2341H210.103V50.3281H201.161V39.2341H181.328V33.0867Z" fill="#0065A3"/>
<path fill-rule="evenodd" clip-rule="evenodd" d="M238.053 30.098C231.604 30.098 226.377 24.8701 226.377 18.4216C226.377 11.9731 231.604 6.74567 238.053 6.74567C244.502 6.74567 249.729 11.9731 249.729 18.4216C249.729 24.8701 244.502 30.098 238.053 30.098M238.053 3.40894C229.762 3.40894 223.041 10.13 223.041 18.421C223.041 26.7121 229.762 33.4336 238.053 33.4336C246.344 33.4336 253.065 26.7121 253.065 18.421C253.065 10.13 246.344 3.40894 238.053 3.40894" fill="#0065A3"/>
<path fill-rule="evenodd" clip-rule="evenodd" d="M239.332 19.9428H236.279V19.9427V16.7232V11.8943H239.332V16.7232H243.912V19.9427H239.332V19.9428Z" fill="#0065A3"/>
</svg>
